<svg width="557" height="448" version="1.1" xmlns="http://www.w3.org/2000/svg" desc="Created with imagetracer.js version 1.2.6" ><path fill="rgb(0,0,0)" stroke="rgb(0,0,0)" stroke-width="1" opacity="0" d="M 0 0 L 557 0 L 557 448 L 0 448 L 0 0 Z M 121 85 L 118 88 L 119 101 L 121 104 L 121 108 L 124 116 Q 131 130 144 140 Q 146 139 145 142 L 166 152 L 180 155 L 252 155 L 252 208 L 252 210 L 252 218 L 253 219 L 252 222 L 252 293 L 253 294 L 252 295 L 252 353 L 252 355 Q 251 361 255 363 L 271 361 Q 283 358 292 351 Q 294 352 293 349 L 298 347 Q 307 339 313 329 L 319 315 L 322 299 L 322 197 L 321 196 L 321 185 L 317 171 L 317 167 L 313 159 L 313 156 L 305 141 L 295 127 L 278 110 Q 275 111 276 108 L 274 107 Q 271 108 272 105 L 249 93 L 246 93 L 237 89 L 233 89 L 230 87 L 210 86 L 209 85 L 121 85 Z M 245 85 L 243 88 L 248 89 L 249 92 L 252 91 L 265 97 L 286 112 L 289 116 Q 291 115 290 118 L 294 120 L 305 135 L 311 145 L 311 148 L 315 153 L 321 170 L 324 188 L 326 189 L 328 187 L 331 179 L 340 169 Q 342 170 341 167 L 356 159 L 371 155 L 438 155 L 438 143 L 434 129 Q 428 115 419 106 L 399 91 L 388 87 L 376 86 L 374 86 L 372 85 L 245 85 Z " /><path fill="rgb(0,0,0)" stroke="rgb(0,0,0)" stroke-width="1" opacity="0" d="M 130 96 L 216.5 96 Q 217.8 98.3 222.5 97 Q 257.8 104.2 279 125.5 Q 278.3 127.8 280.5 127 L 281.5 129 L 255.5 119 L 239.5 116 L 231.5 116 L 230.5 115 L 136 115 L 133 108.5 L 133 105.5 L 131 103.5 L 130 96 Z " /><path fill="rgb(0,0,0)" stroke="rgb(0,0,0)" stroke-width="1" opacity="0" d="M 283.5 96 L 377.5 96 L 389.5 99 L 391.5 101 L 398.5 103 L 414 116.5 L 398.5 117 L 396.5 118 L 394.5 117 L 392.5 117 L 305.5 117 L 290.5 102 L 285 99 Q 286.1 96.3 283.5 97 L 283.5 96 Z " /><path fill="rgb(0,0,0)" stroke="rgb(0,0,0)" stroke-width="1" opacity="0" d="M 147 127 L 235.5 127 L 255.5 131 L 283 142 Q 281.9 144.7 284.5 144 L 288 146.5 Q 287.3 148.8 289.5 148 L 293 150.5 L 291.5 150 L 281.5 146 L 270.5 144 L 180.5 144 Q 179 141.5 173.5 143 Q 157.2 138.8 147 128.5 L 147 127 Z " /><path fill="rgb(0,0,0)" stroke="rgb(0,0,0)" stroke-width="1" opacity="0" d="M 313.5 128 L 331.5 128 L 332.5 129 L 333.5 128 L 352.5 128 L 354.5 128 L 373.5 128 L 374.5 129 L 375.5 128 L 394.5 128 L 396.5 128 L 421.5 128 L 422 129.5 L 426 138.5 L 426 144 L 322.5 144 L 322 142.5 L 313.5 128 Z " /><path fill="rgb(0,0,0)" stroke="rgb(0,0,0)" stroke-width="1" opacity="0" d="M 328 155 L 340 155.5 L 330.5 163 Q 327.3 160.3 328 155 Z " /><path fill="rgb(0,0,0)" stroke="rgb(0,0,0)" stroke-width="1" opacity="0" d="M 268.5 156 L 281 158 L 281 165.5 L 282 166.5 L 281 168.5 L 282 169.5 L 282 187.5 L 281 189.5 L 282 190.5 L 282 208.5 L 282 210.5 L 282 229.5 L 281 230.5 L 282 231.5 L 282 249.5 L 281 251.5 L 282 252.5 L 282 270.5 L 282 272.5 L 282 291.5 L 281 292.5 L 282 293.5 L 282 312.5 L 282 314.5 L 282 332.5 L 281 334.5 L 282 335.5 L 282 345 L 269.5 350 L 263 351 L 263 157.5 Q 263 156.5 267.5 157 L 268.5 156 Z " /><path fill="rgb(0,0,0)" stroke="rgb(0,0,0)" stroke-width="1" opacity="0" d="M 293.5 163 L 300 167 L 309 179.5 L 309 184.5 L 311 190.5 L 311 302.5 L 305 320.5 L 293.5 336 L 293.5 163 Z " /><path fill="rgb(85,148,197)" stroke="rgb(85,148,197)" stroke-width="1" opacity="0.7686274509803922" d="M 120.5 85 L 208.5 85 L 209.5 86 L 229.5 87 L 232.5 89 L 236.5 89 L 245.5 93 L 248.5 93 L 272 105 Q 270.9 107.7 273.5 107 L 276 108 Q 274.9 110.7 277.5 110 L 295 126.5 L 305 140.5 L 313 155.5 L 313 158.5 L 317 166.5 L 317 170.5 L 321 184.5 L 321 195.5 L 322 196.5 L 322 298.5 L 319 314.5 L 313 328.5 Q 306.8 339.3 297.5 347 L 293 349 Q 294.1 351.7 291.5 351 Q 282.8 357.8 270.5 361 L 254.5 363 Q 251 361 252 354.5 L 252 352.5 L 252 294.5 L 253 293.5 L 252 292.5 L 252 221.5 L 253 218.5 L 252 217.5 L 252 209.5 L 252 207.5 L 252 155 L 179.5 155 L 165.5 152 L 145 142 Q 146.1 139.3 143.5 140 Q 131.1 130.4 124 115.5 L 121 107.5 L 121 103.5 L 119 100.5 L 118 87.5 L 120.5 85 Z M 130 96 L 131 104 L 133 106 L 133 109 L 136 115 L 231 115 L 232 116 L 240 116 L 256 119 L 282 129 L 281 127 Q 278 128 279 126 Q 258 104 223 97 Q 218 98 217 96 L 130 96 Z M 147 127 L 147 129 Q 157 139 174 143 Q 179 142 181 144 L 271 144 L 282 146 L 290 149 L 290 148 Q 287 149 288 147 L 285 144 Q 282 145 283 142 L 256 131 L 236 127 L 147 127 Z M 269 156 L 268 157 Q 263 156 263 158 L 263 351 L 270 350 L 282 345 L 282 336 L 281 335 L 282 333 L 282 315 L 282 313 L 282 294 L 281 293 L 282 292 L 282 273 L 282 271 L 282 253 L 281 252 L 282 250 L 282 232 L 281 231 L 282 230 L 282 211 L 282 209 L 282 191 L 281 190 L 282 188 L 282 170 L 281 169 L 282 167 L 281 166 L 281 158 L 269 156 Z M 294 163 L 294 336 L 305 321 L 311 303 L 311 191 L 309 185 L 309 180 L 300 167 L 294 163 Z " /><path fill="rgb(85,148,197)" stroke="rgb(85,148,197)" stroke-width="1" opacity="0.7686274509803922" d="M 244.5 85 L 371.5 85 L 373.5 86 L 375.5 86 L 387.5 87 L 398.5 91 L 419 105.5 Q 428.4 115.1 434 128.5 L 438 142.5 L 438 155 L 370.5 155 L 355.5 159 L 341 167 Q 342.1 169.7 339.5 169 L 331 178.5 L 328 186.5 L 325.5 189 L 324 187.5 L 321 169.5 L 315 152.5 L 311 147.5 L 311 144.5 L 305 134.5 L 294 120 L 290 117.5 Q 290.8 115.3 288.5 116 L 285.5 112 L 264.5 97 L 251.5 91 L 249 92 L 247.5 89 L 243 88 L 244.5 85 Z M 284 96 L 284 97 Q 286 96 285 99 L 291 102 L 306 117 L 393 117 L 395 117 L 397 118 L 399 117 L 414 117 L 399 103 L 392 101 L 390 99 L 378 96 L 284 96 Z M 314 128 L 322 143 L 323 144 L 426 144 L 426 139 L 422 130 L 422 128 L 397 128 L 395 128 L 376 128 L 375 129 L 374 128 L 355 128 L 353 128 L 334 128 L 333 129 L 332 128 L 314 128 Z M 328 155 Q 327 160 331 163 L 340 156 L 328 155 Z " /></svg>